<svg width="16" height="16" fill="none" xmlns="http://www.w3.org/2000/svg"><path d="M12.062 2.445c-.81-.617-1.746-1.049-3.055-1.48-.624-.186-2.37-.247-3.493.123-1.683.617-2.868 1.666-3.866 3.394C1.087 5.469.775 6.765.9 8.184c.062.864.312 1.728.81 2.53l.125.37c.437.68.749 1.297 1.31 1.79.187.186.312.309.499.432 1.122.864 2.12 1.296 2.619 1.42 1.559.493 4.116.555 6.298-.988 2.495-1.727 2.62-4.69 2.557-5.862-.063-1.543-.748-3.086-1.809-4.258-.436-.432-.81-.802-1.247-1.173z" fill="#4B4F47"></path><path opacity=".75" d="M5.577 8.925c.374 1.728.935 3.147 1.497 4.073.374.617.935 1.296 1.621 1.79.125.062.187.123.312.247-.561.061-1.06 0-1.56 0-.498-.309-1.371-1.173-1.87-1.913-.312-.432-.499-.926-.686-1.482-.125-.37-.25-.74-.436-1.11-.312-.617-.375-1.42-.437-2.098 0-.247-.062-.494-.062-.68-.125-.74.187-2.653.56-3.825C4.83 2.939 5.952 1.335 7.075.84c.436 0 .935 0 1.31.062-.999.617-1.872 1.604-2.558 3.147-.623 1.296-.748 2.839-.249 4.875z" fill="#141612"></path><path d="M15.99 7.876c-.061-1.728-.872-3.517-2.057-4.813-.436-.494-.873-.864-1.31-1.296C11.752 1.088 10.69.594 9.256.163c-.748-.186-2.744-.309-4.053.185-1.871.74-3.18 1.851-4.303 3.764C.214 5.284-.098 6.704.027 8.308a6.367 6.367 0 00.935 2.962l.187.309c.437.74.811 1.42 1.435 1.975.187.185.374.308.56.493 1.248.988 2.37 1.42 2.87 1.605 1.745.555 4.614.617 7.046-1.111 2.806-2.036 2.993-5.307 2.93-6.665zM5.578 8.926c.374 1.727.935 3.147 1.497 4.072.374.617.935 1.296 1.62 1.79.126.062.188.123.313.247-.562.061-1.06 0-1.56 0-.498-.309-1.371-1.173-1.87-1.913-.312-.432-.499-.926-.686-1.481-.125-.37-.25-.74-.437-1.111-.311-.617-.374-1.42-.436-2.098 0-.247-.062-.494-.062-.68-.125-.74.187-2.653.56-3.825C4.83 2.939 5.952 1.335 7.075.84c.436 0 .935 0 1.31.062-.999.617-1.872 1.605-2.558 3.147-.623 1.296-.748 2.839-.25 4.875zm-2.432 3.949c-.499-.494-.873-1.05-1.31-1.79l-.187-.308a5.494 5.494 0 01-.81-2.53c-.063-1.42.187-2.716.748-3.703.998-1.666 2.12-2.715 3.741-3.332-.748.802-1.371 1.79-1.559 2.53-.436 1.296-.685 3.27-.56 4.134 0 .185.062.432.062.617.062.74.124 1.605.498 2.345.188.37.312.68.437 1.05.187.555.437 1.11.748 1.604.187.308.562.74.936 1.172-.562-.185-1.372-.617-2.245-1.296l-.5-.493zm9.416.925c-.748.494-1.559.864-2.37 1.05-.997-.37-1.933-1.42-2.494-2.222-.561-.864-1.06-2.222-1.372-3.826-.436-1.913-.374-3.27.187-4.381.873-1.79 1.871-2.84 3.118-3.148 1.06.37 1.809.74 2.495 1.296.436.37.81.74 1.247 1.173C14.432 4.914 15.118 6.457 15.18 8c0 1.11-.124 4.073-2.619 5.8z" fill="#000"></path></svg>